# xmcd
#
# Track frame offsets:
#	150
#	16112
#	22147
#	28157
#	42140
#	49460
#	54192
#	68705
#	84425
#	90027
#	104615
#	108867
#	128950
#	143827
#	151205
#	161212
#	167952
#	183357
#
# Disc length: 2607 seconds
#
# Revision: 1
# Processed by: cddbd v1.5.1PL0 Copyright (c) Steve Scherf et al.
# Submitted via: CDex 1.50Beta5
#
DISCID=e60a2d12
DTITLE=Various Artist - 日本の民謡 (其の二)
DYEAR=1900
DGENRE=
TTITLE0=小諸馬子唄
TTITLE1=炭抗節
TTITLE2=鹿児島小原節
TTITLE3=佐渡おけさ
TTITLE4=黒田節
TTITLE5=おてもやん
TTITLE6=真室川音頭
TTITLE7=大漁唄いこみ
TTITLE8=宮津節
TTITLE9=酒屋唄
TTITLE10=木曾節
TTITLE11=さんさ時雨
TTITLE12=博多節
TTITLE13=阿波踊り
TTITLE14=といちんさ
TTITLE15=名古屋甚句
TTITLE16=木更津甚句
TTITLE17=塩釜甚句
EXTD=
EXTT0=
EXTT1=
EXTT2=
EXTT3=
EXTT4=
EXTT5=
EXTT6=
EXTT7=
EXTT8=
EXTT9=
EXTT10=
EXTT11=
EXTT12=
EXTT13=
EXTT14=
EXTT15=
EXTT16=
EXTT17=
PLAYORDER=
